<mxfile host="app.diagrams.net" modified="2022-07-14T10:27:36.631Z" agent="5.0 (Windows NT 10.0; Win64; x64) AppleWebKit/537.36 (KHTML, like Gecko) Chrome/102.0.5005.115 Safari/537.36 OPR/88.0.4412.75" etag="JVCfPgnnY2x5uIFbU4oL" version="20.0.4" type="github">
  <diagram id="IOWlBg4PVeYaBK9nSRcO" name="Page-1">
    <mxGraphModel dx="1210" dy="679" grid="1" gridSize="10" guides="1" tooltips="1" connect="1" arrows="1" fold="1" page="1" pageScale="1" pageWidth="1169" pageHeight="1654" math="0" shadow="0">
      <root>
        <mxCell id="0" />
        <mxCell id="1" parent="0" />
        <mxCell id="FBg79oT1Klj4Wz8EOWci-1" value="Vermin" style="swimlane;fontStyle=1;align=center;verticalAlign=top;childLayout=stackLayout;horizontal=1;startSize=26;horizontalStack=0;resizeParent=1;resizeParentMax=0;resizeLast=0;collapsible=1;marginBottom=0;" vertex="1" parent="1">
          <mxGeometry x="170" y="220" width="160" height="190" as="geometry" />
        </mxCell>
        <mxCell id="FBg79oT1Klj4Wz8EOWci-2" value="- position: Vector&#xa;- target: Vector&#xa;- action: ACTION&#xa;-plant: Plant" style="text;strokeColor=none;fillColor=none;align=left;verticalAlign=top;spacingLeft=4;spacingRight=4;overflow=hidden;rotatable=0;points=[[0,0.5],[1,0.5]];portConstraint=eastwest;" vertex="1" parent="FBg79oT1Klj4Wz8EOWci-1">
          <mxGeometry y="26" width="160" height="64" as="geometry" />
        </mxCell>
        <mxCell id="FBg79oT1Klj4Wz8EOWci-3" value="" style="line;strokeWidth=1;fillColor=none;align=left;verticalAlign=middle;spacingTop=-1;spacingLeft=3;spacingRight=3;rotatable=0;labelPosition=right;points=[];portConstraint=eastwest;" vertex="1" parent="FBg79oT1Klj4Wz8EOWci-1">
          <mxGeometry y="90" width="160" height="8" as="geometry" />
        </mxCell>
        <mxCell id="FBg79oT1Klj4Wz8EOWci-4" value="+ constructor(_pants: Plant[])&#xa;+ update(): void&#xa;+ die(): void&#xa;# draw(): void&#xa;# eat(): void&#xa;# fly(): void" style="text;strokeColor=none;fillColor=none;align=left;verticalAlign=top;spacingLeft=4;spacingRight=4;overflow=hidden;rotatable=0;points=[[0,0.5],[1,0.5]];portConstraint=eastwest;" vertex="1" parent="FBg79oT1Klj4Wz8EOWci-1">
          <mxGeometry y="98" width="160" height="92" as="geometry" />
        </mxCell>
        <mxCell id="FBg79oT1Klj4Wz8EOWci-5" value="Plant" style="swimlane;fontStyle=3;align=center;verticalAlign=top;childLayout=stackLayout;horizontal=1;startSize=26;horizontalStack=0;resizeParent=1;resizeParentMax=0;resizeLast=0;collapsible=1;marginBottom=0;" vertex="1" parent="1">
          <mxGeometry x="360" y="220" width="160" height="290" as="geometry" />
        </mxCell>
        <mxCell id="FBg79oT1Klj4Wz8EOWci-6" value="+ position: Vector&#xa;+ health: number&#xa;+ vermins: Vermin[]&#xa;+ price: number&#xa;+ name: string&#xa;# growth: GROWTH&#xa;# filed: Field&#xa;# level: number&#xa;# growthRate: number&#xa;# maxHealth: number&#xa;# maxWater: number&#xa;# maxFertilizer: number" style="text;strokeColor=none;fillColor=none;align=left;verticalAlign=top;spacingLeft=4;spacingRight=4;overflow=hidden;rotatable=0;points=[[0,0.5],[1,0.5]];portConstraint=eastwest;" vertex="1" parent="FBg79oT1Klj4Wz8EOWci-5">
          <mxGeometry y="26" width="160" height="174" as="geometry" />
        </mxCell>
        <mxCell id="FBg79oT1Klj4Wz8EOWci-7" value="" style="line;strokeWidth=1;fillColor=none;align=left;verticalAlign=middle;spacingTop=-1;spacingLeft=3;spacingRight=3;rotatable=0;labelPosition=right;points=[];portConstraint=eastwest;" vertex="1" parent="FBg79oT1Klj4Wz8EOWci-5">
          <mxGeometry y="200" width="160" height="8" as="geometry" />
        </mxCell>
        <mxCell id="FBg79oT1Klj4Wz8EOWci-8" value="+ constructor(_position: Vector)&#xa;+ liberate(): void&#xa;+ exist(): void&#xa;# rot(_speed ? number = 1)&#xa;# wither(): void" style="text;strokeColor=none;fillColor=none;align=left;verticalAlign=top;spacingLeft=4;spacingRight=4;overflow=hidden;rotatable=0;points=[[0,0.5],[1,0.5]];portConstraint=eastwest;" vertex="1" parent="FBg79oT1Klj4Wz8EOWci-5">
          <mxGeometry y="208" width="160" height="82" as="geometry" />
        </mxCell>
        <mxCell id="FBg79oT1Klj4Wz8EOWci-9" value="Field" style="swimlane;fontStyle=1;align=center;verticalAlign=top;childLayout=stackLayout;horizontal=1;startSize=26;horizontalStack=0;resizeParent=1;resizeParentMax=0;resizeLast=0;collapsible=1;marginBottom=0;" vertex="1" parent="1">
          <mxGeometry x="570" y="220" width="160" height="250" as="geometry" />
        </mxCell>
        <mxCell id="FBg79oT1Klj4Wz8EOWci-10" value="+ status: STATUS&#xa;+ position: Vector&#xa;+ water: number&#xa;+ fertilizer: number&#xa;# spawnPosition: number&#xa;# plant:Plant[]" style="text;strokeColor=none;fillColor=none;align=left;verticalAlign=top;spacingLeft=4;spacingRight=4;overflow=hidden;rotatable=0;points=[[0,0.5],[1,0.5]];portConstraint=eastwest;" vertex="1" parent="FBg79oT1Klj4Wz8EOWci-9">
          <mxGeometry y="26" width="160" height="94" as="geometry" />
        </mxCell>
        <mxCell id="FBg79oT1Klj4Wz8EOWci-11" value="" style="line;strokeWidth=1;fillColor=none;align=left;verticalAlign=middle;spacingTop=-1;spacingLeft=3;spacingRight=3;rotatable=0;labelPosition=right;points=[];portConstraint=eastwest;" vertex="1" parent="FBg79oT1Klj4Wz8EOWci-9">
          <mxGeometry y="120" width="160" height="8" as="geometry" />
        </mxCell>
        <mxCell id="FBg79oT1Klj4Wz8EOWci-12" value="constructor(_position: Vector)&#xa;+ clicked(_event: MouseEvent)&#xa;+ return(): void&#xa;+ water(): void&#xa;+ fertilize(): void&#xa;+ info(): void&#xa;+ plant(): Plant&#xa;+ grow(_plant: Plant): void" style="text;strokeColor=none;fillColor=none;align=left;verticalAlign=top;spacingLeft=4;spacingRight=4;overflow=hidden;rotatable=0;points=[[0,0.5],[1,0.5]];portConstraint=eastwest;" vertex="1" parent="FBg79oT1Klj4Wz8EOWci-9">
          <mxGeometry y="128" width="160" height="122" as="geometry" />
        </mxCell>
      </root>
    </mxGraphModel>
  </diagram>
</mxfile>
